<?xml version="1.0" encoding="utf-8"?>
<!-- Generator: Adobe Illustrator 17.1.0, SVG Export Plug-In . SVG Version: 6.00 Build 0)  -->
<!DOCTYPE svg PUBLIC "-//W3C//DTD SVG 1.1//EN" "http://www.w3.org/Graphics/SVG/1.1/DTD/svg11.dtd">
<svg xmlns="http://www.w3.org/2000/svg" id="messyMarketOrganized" width="100%" height="200px">
  <rect x="0" y="0" width="100%" height="100%" fill="white"></rect>
  <desc>Created with Snap</desc><defs></defs><g transform="matrix(0,-1,1,0,16.1641,139.4453)"><text x="50" y="70" transform="matrix(1,0,0,1,0,0)" style="font-size: 30px; font-family: FontAwesome; opacity: 0.1;"></text><text x="75" y="55" fill="#008000" style="font-size: 13px; opacity: 0.1;">BUY</text><text x="75" y="75" style="font-size: 15px; opacity: 0.1;">$35</text></g><g transform="matrix(0,-1,1,0,66.1641,189.4453)"><text x="100" y="70" transform="matrix(1,0,0,1,0,0)" style="font-size: 30px; font-family: FontAwesome; opacity: 0.2;"></text><text x="125" y="55" fill="#008000" style="font-size: 13px; opacity: 0.2;">BUY</text><text x="125" y="75" style="font-size: 15px; opacity: 0.2;">$37</text></g><g transform="matrix(0,-1,1,0,116.1641,239.4453)"><text x="150" y="70" transform="matrix(1,0,0,1,0,0)" style="font-size: 30px; font-family: FontAwesome; opacity: 0.3;"></text><text x="175" y="55" fill="#008000" style="font-size: 13px; opacity: 0.3;">BUY</text><text x="175" y="75" style="font-size: 15px; opacity: 0.3;">$40</text></g><g transform="matrix(0,-1,1,0,166.1641,289.4453)"><text x="200" y="70" transform="matrix(1,0,0,1,0,0)" style="font-size: 30px; font-family: FontAwesome; opacity: 0.4;"></text><text x="225" y="55" fill="#008000" style="font-size: 13px; opacity: 0.4;">BUY</text><text x="225" y="75" style="font-size: 15px; opacity: 0.4;">$44</text></g><g transform="matrix(0,-1,1,0,216.1641,339.4453)"><text x="250" y="70" transform="matrix(1,0,0,1,0,0)" style="font-size: 30px; font-family: FontAwesome; opacity: 0.5;"></text><text x="275" y="55" fill="#008000" style="font-size: 13px; opacity: 0.5;">BUY</text><text x="275" y="75" style="font-size: 15px; opacity: 0.5;">$49</text></g><g transform="matrix(0,-1,1,0,266.1641,389.4453)"><text x="300" y="70" transform="matrix(1,0,0,1,0,0)" style="font-size: 30px; font-family: FontAwesome; opacity: 0.6;"></text><text x="325" y="55" fill="#008000" style="font-size: 13px; opacity: 0.6;">BUY</text><text x="325" y="75" style="font-size: 15px; opacity: 0.6;">$55</text></g><g transform="matrix(0,-1,1,0,316.1641,439.4453)"><text x="350" y="70" transform="matrix(1,0,0,1,0,0)" style="font-size: 30px; font-family: FontAwesome; opacity: 0.7;"></text><text x="375" y="55" fill="#008000" style="font-size: 13px; opacity: 0.7;">BUY</text><text x="375" y="75" style="font-size: 15px; opacity: 0.7;">$62</text></g><g transform="matrix(0,-1,1,0,366.1641,489.4453)"><text x="400" y="70" transform="matrix(1,0,0,1,0,0)" style="font-size: 30px; font-family: FontAwesome; opacity: 0.8;"></text><text x="425" y="55" fill="#008000" style="font-size: 13px; opacity: 0.8;">BUY</text><text x="425" y="75" style="font-size: 15px; opacity: 0.8;">$70</text></g><g transform="matrix(0,-1,1,0,416.1641,539.4453)"><text x="450" y="70" transform="matrix(1,0,0,1,0,0)" style="font-size: 30px; font-family: FontAwesome; opacity: 0.9;"></text><text x="475" y="55" fill="#008000" style="font-size: 13px; opacity: 0.9;">BUY</text><text x="475" y="75" style="font-size: 15px; opacity: 0.9;">$79</text></g><g transform="matrix(0,-1,1,0,466.1641,589.4453)"><text x="500" y="70" transform="matrix(1,0,0,1,0,0)" style="font-size: 30px; font-family: FontAwesome; opacity: 1;"></text><text x="525" y="55" fill="#008000" style="font-size: 13px; opacity: 1;">BUY</text><text x="525" y="75" style="font-size: 15px; opacity: 1;">$89</text></g><g transform="matrix(0,-1,1,0,376.1641,679.4453)"><text x="500" y="160" transform="matrix(1,0,0,1,0,0)" style="font-size: 30px; font-family: FontAwesome; opacity: 1;"></text><text x="525" y="145" fill="#ff0000" style="font-size: 13px; opacity: 1;">SELL</text><text x="525" y="165" style="font-size: 15px; opacity: 1;">$99</text></g><g transform="matrix(0,-1,1,0,331.2656,634.5469)"><text x="450" y="160" transform="matrix(1,0,0,1,0,0)" style="font-size: 30px; font-family: FontAwesome; opacity: 0.9;"></text><text x="475" y="145" fill="#ff0000" style="font-size: 13px; opacity: 0.9;">SELL</text><text x="475" y="165" style="font-size: 15px; opacity: 0.9;">$108</text></g><g transform="matrix(0,-1,1,0,281.2656,584.5469)"><text x="400" y="160" transform="matrix(1,0,0,1,0,0)" style="font-size: 30px; font-family: FontAwesome; opacity: 0.8;"></text><text x="425" y="145" fill="#ff0000" style="font-size: 13px; opacity: 0.8;">SELL</text><text x="425" y="165" style="font-size: 15px; opacity: 0.8;">$116</text></g><g transform="matrix(0,-1,1,0,231.2656,534.5469)"><text x="350" y="160" transform="matrix(1,0,0,1,0,0)" style="font-size: 30px; font-family: FontAwesome; opacity: 0.7;"></text><text x="375" y="145" fill="#ff0000" style="font-size: 13px; opacity: 0.7;">SELL</text><text x="375" y="165" style="font-size: 15px; opacity: 0.7;">$123</text></g><g transform="matrix(0,-1,1,0,181.2656,484.5469)"><text x="300" y="160" transform="matrix(1,0,0,1,0,0)" style="font-size: 30px; font-family: FontAwesome; opacity: 0.6;"></text><text x="325" y="145" fill="#ff0000" style="font-size: 13px; opacity: 0.6;">SELL</text><text x="325" y="165" style="font-size: 15px; opacity: 0.6;">$129</text></g><g transform="matrix(0,-1,1,0,131.2656,434.5469)"><text x="250" y="160" transform="matrix(1,0,0,1,0,0)" style="font-size: 30px; font-family: FontAwesome; opacity: 0.5;"></text><text x="275" y="145" fill="#ff0000" style="font-size: 13px; opacity: 0.5;">SELL</text><text x="275" y="165" style="font-size: 15px; opacity: 0.5;">$134</text></g><g transform="matrix(0,-1,1,0,81.2656,384.5469)"><text x="200" y="160" transform="matrix(1,0,0,1,0,0)" style="font-size: 30px; font-family: FontAwesome; opacity: 0.4;"></text><text x="225" y="145" fill="#ff0000" style="font-size: 13px; opacity: 0.4;">SELL</text><text x="225" y="165" style="font-size: 15px; opacity: 0.4;">$138</text></g><g transform="matrix(0,-1,1,0,31.2656,334.5469)"><text x="150" y="160" transform="matrix(1,0,0,1,0,0)" style="font-size: 30px; font-family: FontAwesome; opacity: 0.3;"></text><text x="175" y="145" fill="#ff0000" style="font-size: 13px; opacity: 0.3;">SELL</text><text x="175" y="165" style="font-size: 15px; opacity: 0.3;">$141</text></g><g transform="matrix(0,-1,1,0,-18.7344,284.5469)"><text x="100" y="160" transform="matrix(1,0,0,1,0,0)" style="font-size: 30px; font-family: FontAwesome; opacity: 0.2;"></text><text x="125" y="145" fill="#ff0000" style="font-size: 13px; opacity: 0.2;">SELL</text><text x="125" y="165" style="font-size: 15px; opacity: 0.2;">$143</text></g><g transform="matrix(0,-1,1,0,-68.7344,234.5469)"><text x="50" y="160" transform="matrix(1,0,0,1,0,0)" style="font-size: 30px; font-family: FontAwesome; opacity: 0.1;"></text><text x="75" y="145" fill="#ff0000" style="font-size: 13px; opacity: 0.1;">SELL</text><text x="75" y="165" style="font-size: 15px; opacity: 0.1;">$144</text></g></svg>
