<?xml version="1.0" encoding="utf-8"?>
<!-- Generator: Adobe Illustrator 17.1.0, SVG Export Plug-In . SVG Version: 6.00 Build 0)  -->
<!DOCTYPE svg PUBLIC "-//W3C//DTD SVG 1.1//EN" "http://www.w3.org/Graphics/SVG/1.1/DTD/svg11.dtd">
<svg xmlns="http://www.w3.org/2000/svg" id="messyMarket" width="100%" height="200px">
  <rect x="0" y="0" width="100%" height="100%" onclick="textbox(event)" fill="white"></rect>
  <desc>Created with Snap</desc><defs></defs><g class="LNUX"><text x="93" y="87" transform="matrix(1,0,0,1,0,0)" style="font-size: 30px; font-family: FontAwesome; opacity: 0.75;">&#xf183;</text><text x="118" y="72" fill="#ff0000" style="font-size: 13px; opacity: 0.75;">SELL</text><text x="148" y="72" style="font-size: 15px; font-family: FontAwesome; opacity: 0.75;"></text><text x="118" y="92" style="font-size: 15px; opacity: 0.75;">$52.67</text></g><g class="REDT"><text x="69" y="134" transform="matrix(1,0,0,1,0,0)" style="font-size: 30px; font-family: FontAwesome; opacity: 0.75;"></text><text x="94" y="119" fill="#008000" style="font-size: 13px; opacity: 0.75;">BUY</text><text x="124" y="119" style="font-size: 15px; font-family: FontAwesome; opacity: 0.75;"></text><text x="94" y="139" style="font-size: 15px; opacity: 0.75;">$24.99</text></g><g class="REDT"><text x="360" y="94" transform="matrix(1,0,0,1,0,0)" style="font-size: 30px; font-family: FontAwesome; opacity: 0.75;"></text><text x="385" y="79" fill="#ff0000" style="font-size: 13px; opacity: 0.75;">SELL</text><text x="415" y="79" style="font-size: 15px; font-family: FontAwesome; opacity: 0.75;"></text><text x="385" y="99" style="font-size: 15px; opacity: 0.75;">$74.83</text></g><g class="GTHB"><text x="271" y="132" transform="matrix(1,0,0,1,0,0)" style="font-size: 30px; font-family: FontAwesome; opacity: 0.75;"></text><text x="296" y="117" fill="#008000" style="font-size: 13px; opacity: 0.75;">BUY</text><text x="326" y="117" style="font-size: 15px; font-family: FontAwesome; opacity: 0.75;"></text><text x="296" y="137" style="font-size: 15px; opacity: 0.75;">$87.9</text></g><g class="REDT"><text x="515" y="64" transform="matrix(1,0,0,1,0,0)" style="font-size: 30px; font-family: FontAwesome; opacity: 0.75;"></text><text x="540" y="49" fill="#008000" style="font-size: 13px; opacity: 0.75;">BUY</text><text x="570" y="49" style="font-size: 15px; font-family: FontAwesome; opacity: 0.75;"></text><text x="540" y="69" style="font-size: 15px; opacity: 0.75;">$158.75</text></g><g class="LNUX"><text x="731" y="160" transform="matrix(1,0,0,1,0,0)" style="font-size: 30px; font-family: FontAwesome; opacity: 0.75;"></text><text x="756" y="145" fill="#008000" style="font-size: 13px; opacity: 0.75;">BUY</text><text x="786" y="145" style="font-size: 15px; font-family: FontAwesome; opacity: 0.75;"></text><text x="756" y="165" style="font-size: 15px; opacity: 0.75;">$168.89</text></g><g class="GTHB"><text x="693" y="79" transform="matrix(1,0,0,1,0,0)" style="font-size: 30px; font-family: FontAwesome; opacity: 0.75;"></text><text x="718" y="64" fill="#008000" style="font-size: 13px; opacity: 0.75;">BUY</text><text x="748" y="64" style="font-size: 15px; font-family: FontAwesome; opacity: 0.75;"></text><text x="718" y="84" style="font-size: 15px; opacity: 0.75;">$46.97</text></g><g class="REDT"><text x="584" y="146" transform="matrix(1,0,0,1,0,0)" style="font-size: 30px; font-family: FontAwesome; opacity: 0.75;"></text><text x="609" y="131" fill="#008000" style="font-size: 13px; opacity: 0.75;">BUY</text><text x="639" y="131" style="font-size: 15px; font-family: FontAwesome; opacity: 0.75;"></text><text x="609" y="151" style="font-size: 15px; opacity: 0.75;">$18.83</text></g><g class="REDT"><text x="470" y="134" transform="matrix(1,0,0,1,0,0)" style="font-size: 30px; font-family: FontAwesome; opacity: 0.75;"></text><text x="495" y="119" fill="#ff0000" style="font-size: 13px; opacity: 0.75;">SELL</text><text x="525" y="119" style="font-size: 15px; font-family: FontAwesome; opacity: 0.75;"></text><text x="495" y="139" style="font-size: 15px; opacity: 0.75;">$158.92</text></g><g class="LNUX"><text x="210" y="57" transform="matrix(1,0,0,1,0,0)" style="font-size: 30px; font-family: FontAwesome; opacity: 0.75;"></text><text x="235" y="42" fill="#ff0000" style="font-size: 13px; opacity: 0.75;">SELL</text><text x="265" y="42" style="font-size: 15px; font-family: FontAwesome; opacity: 0.75;"></text><text x="235" y="62" style="font-size: 15px; opacity: 0.75;">$171.43</text></g><g class="REDT"><text x="187" y="131" transform="matrix(1,0,0,1,0,0)" style="font-size: 30px; font-family: FontAwesome; opacity: 0.75;"></text><text x="212" y="116" fill="#008000" style="font-size: 13px; opacity: 0.75;">BUY</text><text x="242" y="116" style="font-size: 15px; font-family: FontAwesome; opacity: 0.75;"></text><text x="212" y="136" style="font-size: 15px; opacity: 0.75;">$30.61</text></g><g class="REDT"><text x="40" y="50" transform="matrix(1,0,0,1,0,0)" style="font-size: 30px; font-family: FontAwesome; opacity: 0.75;"></text><text x="65" y="35" fill="#ff0000" style="font-size: 13px; opacity: 0.75;">SELL</text><text x="95" y="35" style="font-size: 15px; font-family: FontAwesome; opacity: 0.75;"></text><text x="65" y="55" style="font-size: 15px; opacity: 0.75;">$27.5</text></g><g class="GTHB"><text x="20" y="88" transform="matrix(1,0,0,1,0,0)" style="font-size: 30px; font-family: FontAwesome; opacity: 0.75;"></text><text x="45" y="73" fill="#008000" style="font-size: 13px; opacity: 0.75;">BUY</text><text x="75" y="73" style="font-size: 15px; font-family: FontAwesome; opacity: 0.75;"></text><text x="45" y="93" style="font-size: 15px; opacity: 0.75;">$119.19</text></g><g class="REDT"><text x="8" y="141" transform="matrix(1,0,0,1,0,0)" style="font-size: 30px; font-family: FontAwesome; opacity: 0.75;"></text><text x="33" y="126" fill="#008000" style="font-size: 13px; opacity: 0.75;">BUY</text><text x="63" y="126" style="font-size: 15px; font-family: FontAwesome; opacity: 0.75;"></text><text x="33" y="146" style="font-size: 15px; opacity: 0.75;">$198.89</text></g><g class="LNUX"><text x="160" y="164" transform="matrix(1,0,0,1,0,0)" style="font-size: 30px; font-family: FontAwesome; opacity: 0.75;"></text><text x="185" y="149" fill="#008000" style="font-size: 13px; opacity: 0.75;">BUY</text><text x="215" y="149" style="font-size: 15px; font-family: FontAwesome; opacity: 0.75;"></text><text x="185" y="169" style="font-size: 15px; opacity: 0.75;">$87.77</text></g><g class="REDT"><text x="280" y="185" transform="matrix(1,0,0,1,0,0)" style="font-size: 30px; font-family: FontAwesome; opacity: 0.75;"></text><text x="305" y="170" fill="#008000" style="font-size: 13px; opacity: 0.75;">BUY</text><text x="335" y="170" style="font-size: 15px; font-family: FontAwesome; opacity: 0.75;"></text><text x="305" y="190" style="font-size: 15px; opacity: 0.75;">$24.95</text></g><g class="LNUX"><text x="367" y="144" transform="matrix(1,0,0,1,0,0)" style="font-size: 30px; font-family: FontAwesome; opacity: 0.75;"></text><text x="392" y="129" fill="#ff0000" style="font-size: 13px; opacity: 0.75;">SELL</text><text x="422" y="129" style="font-size: 15px; font-family: FontAwesome; opacity: 0.75;"></text><text x="392" y="149" style="font-size: 15px; opacity: 0.75;">$198.5</text></g><g class="LNUX"><text x="459" y="176" transform="matrix(1,0,0,1,0,0)" style="font-size: 30px; font-family: FontAwesome; opacity: 0.75;"></text><text x="484" y="161" fill="#008000" style="font-size: 13px; opacity: 0.75;">BUY</text><text x="514" y="161" style="font-size: 15px; font-family: FontAwesome; opacity: 0.75;"></text><text x="484" y="181" style="font-size: 15px; opacity: 0.75;">$129.98</text></g><g class="LNUX"><text x="395" y="177" transform="matrix(1,0,0,1,0,0)" style="font-size: 30px; font-family: FontAwesome; opacity: 0.75;"></text><text x="420" y="162" fill="#ff0000" style="font-size: 13px; opacity: 0.75;">SELL</text><text x="450" y="162" style="font-size: 15px; font-family: FontAwesome; opacity: 0.75;"></text><text x="420" y="182" style="font-size: 15px; opacity: 0.75;">$74.92</text></g><g class="LNUX"><text x="575" y="96" transform="matrix(1,0,0,1,0,0)" style="font-size: 30px; font-family: FontAwesome; opacity: 0.75;"></text><text x="600" y="81" fill="#008000" style="font-size: 13px; opacity: 0.75;">BUY</text><text x="630" y="81" style="font-size: 15px; font-family: FontAwesome; opacity: 0.75;"></text><text x="600" y="101" style="font-size: 15px; opacity: 0.75;">$106.04</text></g><g class="LNUX"><text x="617" y="50" transform="matrix(1,0,0,1,0,0)" style="font-size: 30px; font-family: FontAwesome; opacity: 0.75;"></text><text x="642" y="35" fill="#ff0000" style="font-size: 13px; opacity: 0.75;">SELL</text><text x="672" y="35" style="font-size: 15px; font-family: FontAwesome; opacity: 0.75;"></text><text x="642" y="55" style="font-size: 15px; opacity: 0.75;">$193.11</text></g><g class="REDT"><text x="575" y="187" transform="matrix(1,0,0,1,0,0)" style="font-size: 30px; font-family: FontAwesome; opacity: 0.75;"></text><text x="600" y="172" fill="#008000" style="font-size: 13px; opacity: 0.75;">BUY</text><text x="630" y="172" style="font-size: 15px; font-family: FontAwesome; opacity: 0.75;"></text><text x="600" y="192" style="font-size: 15px; opacity: 0.75;">$15.26</text></g><g class="LNUX"><text x="690" y="186" transform="matrix(1,0,0,1,0,0)" style="font-size: 30px; font-family: FontAwesome; opacity: 0.75;"></text><text x="715" y="171" fill="#ff0000" style="font-size: 13px; opacity: 0.75;">SELL</text><text x="745" y="171" style="font-size: 15px; font-family: FontAwesome; opacity: 0.75;"></text><text x="715" y="191" style="font-size: 15px; opacity: 0.75;">$133.16</text></g><g class="REDT"><text x="697" y="114" transform="matrix(1,0,0,1,0,0)" style="font-size: 30px; font-family: FontAwesome; opacity: 0.75;"></text><text x="722" y="99" fill="#008000" style="font-size: 13px; opacity: 0.75;">BUY</text><text x="752" y="99" style="font-size: 15px; font-family: FontAwesome; opacity: 0.75;"></text><text x="722" y="119" style="font-size: 15px; opacity: 0.75;">$117.48</text></g><g class="LNUX"><text x="468" y="82" transform="matrix(1,0,0,1,0,0)" style="font-size: 30px; font-family: FontAwesome; opacity: 0.75;"></text><text x="493" y="67" fill="#008000" style="font-size: 13px; opacity: 0.75;">BUY</text><text x="523" y="67" style="font-size: 15px; font-family: FontAwesome; opacity: 0.75;"></text><text x="493" y="87" style="font-size: 15px; opacity: 0.75;">$21.83</text></g><g class="LNUX"><text x="421" y="43" transform="matrix(1,0,0,1,0,0)" style="font-size: 30px; font-family: FontAwesome; opacity: 0.75;"></text><text x="446" y="28" fill="#ff0000" style="font-size: 13px; opacity: 0.75;">SELL</text><text x="476" y="28" style="font-size: 15px; font-family: FontAwesome; opacity: 0.75;"></text><text x="446" y="48" style="font-size: 15px; opacity: 0.75;">$44.78</text></g><g class="REDT"><text x="334" y="52" transform="matrix(1,0,0,1,0,0)" style="font-size: 30px; font-family: FontAwesome; opacity: 0.75;"></text><text x="359" y="37" fill="#008000" style="font-size: 13px; opacity: 0.75;">BUY</text><text x="389" y="37" style="font-size: 15px; font-family: FontAwesome; opacity: 0.75;"></text><text x="359" y="57" style="font-size: 15px; opacity: 0.75;">$84.67</text></g><g class="LNUX"><text x="140" y="39" transform="matrix(1,0,0,1,0,0)" style="font-size: 30px; font-family: FontAwesome; opacity: 0.75;"></text><text x="165" y="24" fill="#ff0000" style="font-size: 13px; opacity: 0.75;">SELL</text><text x="195" y="24" style="font-size: 15px; font-family: FontAwesome; opacity: 0.75;"></text><text x="165" y="44" style="font-size: 15px; opacity: 0.75;">$58.03</text></g><g class="REDT"><text x="200" y="88" transform="matrix(1,0,0,1,0,0)" style="font-size: 30px; font-family: FontAwesome; opacity: 0.75;"></text><text x="225" y="73" fill="#ff0000" style="font-size: 13px; opacity: 0.75;">SELL</text><text x="255" y="73" style="font-size: 15px; font-family: FontAwesome; opacity: 0.75;"></text><text x="225" y="93" style="font-size: 15px; opacity: 0.75;">$59.36</text></g><g class="LNUX"><text x="208" y="192" transform="matrix(1,0,0,1,0,0)" style="font-size: 30px; font-family: FontAwesome; opacity: 0.75;"></text><text x="233" y="177" fill="#ff0000" style="font-size: 13px; opacity: 0.75;">SELL</text><text x="263" y="177" style="font-size: 15px; font-family: FontAwesome; opacity: 0.75;"></text><text x="233" y="197" style="font-size: 15px; opacity: 0.75;">$99.84</text></g><g class="GTHB"><text x="104" y="194" transform="matrix(1,0,0,1,0,0)" style="font-size: 30px; font-family: FontAwesome; opacity: 0.75;"></text><text x="129" y="179" fill="#ff0000" style="font-size: 13px; opacity: 0.75;">SELL</text><text x="159" y="179" style="font-size: 15px; font-family: FontAwesome; opacity: 0.75;"></text><text x="129" y="199" style="font-size: 15px; opacity: 0.75;">$64.61</text></g><g class="REDT"><text x="28" y="179" transform="matrix(1,0,0,1,0,0)" style="font-size: 30px; font-family: FontAwesome; opacity: 0.75;"></text><text x="53" y="164" fill="#008000" style="font-size: 13px; opacity: 0.75;">BUY</text><text x="83" y="164" style="font-size: 15px; font-family: FontAwesome; opacity: 0.75;"></text><text x="53" y="184" style="font-size: 15px; opacity: 0.75;">$147.4</text></g></svg>
