<?xml version="1.0" encoding="utf-8"?>
<!-- Generator: Adobe Illustrator 17.1.0, SVG Export Plug-In . SVG Version: 6.00 Build 0)  -->
<!DOCTYPE svg PUBLIC "-//W3C//DTD SVG 1.1//EN" "http://www.w3.org/Graphics/SVG/1.1/DTD/svg11.dtd">
<svg xmlns="http://www.w3.org/2000/svg" id="neworder1" width="100%" height="200px">
  <desc>Created with Snap</desc><defs></defs><line x1="0" x2="300" y1="65" y2="65" stroke="#000000" style="stroke-width: 1px;"></line><line x1="0" x2="300" y1="125" y2="125" stroke="#000000" style="stroke-width: 1px;"></line><text x="-14" y="100" fill="#008000" style="font-size: 15px; opacity: 0.5;" transform="matrix(0,1,-1,0,104.7422,86.7578)"> 34.28</text><text x="4" y="60" fill="#000000" style="font-size: 15px; font-family: FontAwesome;" transform="matrix(1,0,0,1,0,0)">  </text><line x1="3" x2="3" y1="0" y2="200" stroke="#000000" style="stroke-width: 1px; opacity: 0.05;"></line><text x="1" y="100" fill="#008000" style="font-size: 15px; opacity: 0.5;" transform="matrix(0,1,-1,0,119.7422,71.7578)"> 34.29</text><text x="19" y="60" fill="#000000" style="font-size: 15px; font-family: FontAwesome;" transform="matrix(1,0,0,1,0,0)">  </text><line x1="18" x2="18" y1="0" y2="200" stroke="#000000" style="stroke-width: 1px; opacity: 0.05;"></line><text x="16" y="100" fill="#008000" style="font-size: 15px; opacity: 0.5;" transform="matrix(0,1,-1,0,134.7422,56.7578)"> 34.30</text><text x="34" y="60" fill="#000000" style="font-size: 15px; font-family: FontAwesome;" transform="matrix(1,0,0,1,0,0)">  </text><line x1="33" x2="33" y1="0" y2="200" stroke="#000000" style="stroke-width: 1px; opacity: 0.05;"></line><text x="31" y="100" fill="#008000" style="font-size: 15px; opacity: 0.5;" transform="matrix(0,1,-1,0,149.7422,41.7578)"> 34.31</text><text x="49" y="60" fill="#000000" style="font-size: 15px; font-family: FontAwesome;" transform="matrix(1,0,0,1,0,0)">  </text><line x1="48" x2="48" y1="0" y2="200" stroke="#000000" style="stroke-width: 1px; opacity: 0.05;"></line><text x="46" y="100" fill="#008000" style="font-size: 15px; opacity: 0.5;" transform="matrix(0,1,-1,0,164.7422,26.7578)"> 34.32</text><text x="64" y="60" fill="#000000" style="font-size: 15px; font-family: FontAwesome;" transform="matrix(1,0,0,1,0,0)">  </text><line x1="63" x2="63" y1="0" y2="200" stroke="#000000" style="stroke-width: 1px; opacity: 0.05;"></line><text x="61" y="100" fill="#008000" style="font-size: 15px; opacity: 0.5;" transform="matrix(0,1,-1,0,179.7422,11.7578)"> 34.33</text><text x="79" y="60" fill="#000000" style="font-size: 15px; font-family: FontAwesome;" transform="matrix(1,0,0,1,0,0)">  </text><line x1="78" x2="78" y1="0" y2="200" stroke="#000000" style="stroke-width: 1px; opacity: 0.05;"></line><text x="76" y="100" fill="#008000" style="font-size: 15px; opacity: 0.5;" transform="matrix(0,1,-1,0,194.7422,-3.2422)"> 34.34</text><text x="94" y="60" fill="#000000" style="font-size: 15px; font-family: FontAwesome;" transform="matrix(1,0,0,1,0,0)">  </text><line x1="93" x2="93" y1="0" y2="200" stroke="#000000" style="stroke-width: 1px; opacity: 0.05;"></line><text x="91" y="100" fill="#008000" style="font-size: 15px; opacity: 0.5;" transform="matrix(0,1,-1,0,209.7422,-18.2422)"> 34.35</text><line x1="108" x2="108" y1="0" y2="200" stroke="#000000" style="stroke-width: 1px; opacity: 0.05;"></line><text x="106" y="100" fill="#008000" style="font-size: 15px; opacity: 0.5;" transform="matrix(0,1,-1,0,224.7422,-33.2422)"> 34.36</text><text x="124" y="60" fill="#008000" style="font-size: 15px; font-family: FontAwesome;" transform="matrix(1,0,0,1,0,0)">  </text><line x1="123" x2="123" y1="0" y2="200" stroke="#000000" style="stroke-width: 1px; opacity: 0.05;"></line><text x="121" y="100" fill="#000000" style="font-size: 15px; opacity: 0.5;" transform="matrix(0,1,-1,0,239.7422,-48.2422)"> 34.37</text><line x1="138" x2="138" y1="0" y2="200" stroke="#000000" style="stroke-width: 1px; opacity: 0.05;"></line><text x="136" y="100" fill="#ff0000" style="font-size: 15px; opacity: 0.5;" transform="matrix(0,1,-1,0,254.7422,-63.2422)"> 34.38</text><text x="154" y="143" fill="#ff0000" style="font-size: 15px; font-family: FontAwesome;" transform="matrix(1,0,0,1,0,0)">  </text><line x1="153" x2="153" y1="0" y2="200" stroke="#000000" style="stroke-width: 1px; opacity: 0.05;"></line><text x="151" y="100" fill="#ff0000" style="font-size: 15px; opacity: 0.5;" transform="matrix(0,1,-1,0,269.7422,-78.2422)"> 34.39</text><text x="169" y="143" fill="#000000" style="font-size: 15px; font-family: FontAwesome;" transform="matrix(1,0,0,1,0,0)">  </text><line x1="168" x2="168" y1="0" y2="200" stroke="#000000" style="stroke-width: 1px; opacity: 0.05;"></line><text x="166" y="100" fill="#ff0000" style="font-size: 15px; opacity: 0.5;" transform="matrix(0,1,-1,0,284.7422,-93.2422)"> 34.40</text><line x1="183" x2="183" y1="0" y2="200" stroke="#000000" style="stroke-width: 1px; opacity: 0.05;"></line><text x="181" y="100" fill="#ff0000" style="font-size: 15px; opacity: 0.5;" transform="matrix(0,1,-1,0,299.7422,-108.2422)"> 34.41</text><text x="199" y="143" fill="#000000" style="font-size: 15px; font-family: FontAwesome;" transform="matrix(1,0,0,1,0,0)">  </text><line x1="198" x2="198" y1="0" y2="200" stroke="#000000" style="stroke-width: 1px; opacity: 0.05;"></line><text x="196" y="100" fill="#ff0000" style="font-size: 15px; opacity: 0.5;" transform="matrix(0,1,-1,0,314.7422,-123.2422)"> 34.42</text><line x1="213" x2="213" y1="0" y2="200" stroke="#000000" style="stroke-width: 1px; opacity: 0.05;"></line><text x="211" y="100" fill="#ff0000" style="font-size: 15px; opacity: 0.5;" transform="matrix(0,1,-1,0,329.7422,-138.2422)"> 34.43</text><text x="229" y="143" fill="#000000" style="font-size: 15px; font-family: FontAwesome;" transform="matrix(1,0,0,1,0,0)">  </text><line x1="228" x2="228" y1="0" y2="200" stroke="#000000" style="stroke-width: 1px; opacity: 0.05;"></line><text x="226" y="100" fill="#ff0000" style="font-size: 15px; opacity: 0.5;" transform="matrix(0,1,-1,0,344.7422,-153.2422)"> 34.44</text><line x1="243" x2="243" y1="0" y2="200" stroke="#000000" style="stroke-width: 1px; opacity: 0.05;"></line><text x="241" y="100" fill="#ff0000" style="font-size: 15px; opacity: 0.5;" transform="matrix(0,1,-1,0,359.7422,-168.2422)"> 34.45</text><line x1="258" x2="258" y1="0" y2="200" stroke="#000000" style="stroke-width: 1px; opacity: 0.05;"></line><text x="256" y="100" fill="#ff0000" style="font-size: 15px; opacity: 0.5;" transform="matrix(0,1,-1,0,374.7422,-183.2422)"> 34.46</text><text x="274" y="143" fill="#000000" style="font-size: 15px; font-family: FontAwesome;" transform="matrix(1,0,0,1,0,0)">  </text><line x1="273" x2="273" y1="0" y2="200" stroke="#000000" style="stroke-width: 1px; opacity: 0.05;"></line><text x="271" y="100" fill="#ff0000" style="font-size: 15px; opacity: 0.5;" transform="matrix(0,1,-1,0,389.7422,-198.2422)"> 34.47</text><text x="289" y="143" fill="#000000" style="font-size: 15px; font-family: FontAwesome;" transform="matrix(1,0,0,1,0,0)">  </text><line x1="288" x2="288" y1="0" y2="200" stroke="#000000" style="stroke-width: 1px; opacity: 0.05;"></line><g transform="matrix(0.75,0,0,0.75,90.1484,24.1602)"><text x="320" y="105" transform="matrix(1,0,0,1,0,0)" style="font-size: 30px; font-family: FontAwesome; opacity: 3;"></text><text x="345" y="90" fill="#008000" style="font-size: 13px; opacity: 3;">BUY</text><text x="345" y="110" style="font-size: 15px; opacity: 3;">$34.35</text></g><path d="M115,40 C115,5 308,9 337,80" stroke="#000000" style="stroke-width: 3px; fill-opacity: 0; stroke-dasharray: 10px, 5px;"></path></svg>
