<?xml version="1.0" encoding="utf-8"?>
<!-- Generator: Adobe Illustrator 17.1.0, SVG Export Plug-In . SVG Version: 6.00 Build 0)  -->
<!DOCTYPE svg PUBLIC "-//W3C//DTD SVG 1.1//EN" "http://www.w3.org/Graphics/SVG/1.1/DTD/svg11.dtd">
<svg xmlns="http://www.w3.org/2000/svg" id="singleMarket" width="100%" height="200px">
  <rect x="0" y="0" width="100%" height="100%" fill="white"></rect>
  <desc>Created with Snap</desc><defs></defs><line x1="0" x2="800" y1="65" y2="65" stroke="#000000" style="stroke-width: 1px;"></line><line x1="0" x2="800" y1="125" y2="125" stroke="#000000" style="stroke-width: 1px;"></line><text x="-14" y="100" transform="matrix(0,1,-1,0,104.7422,86.7578)" style="font-size: 15px; opacity: 0.5;"> 34.10</text><text x="4" y="60" transform="matrix(1,0,0,1,0,0)" style="font-size: 15px; font-family: FontAwesome;">  </text><line x1="3" x2="3" y1="0" y2="200" stroke="#000000" style="stroke-width: 1px; opacity: 0.05;"></line><text x="1" y="100" transform="matrix(0,1,-1,0,119.7422,71.7578)" style="font-size: 15px; opacity: 0.5;"> 34.11</text><line x1="18" x2="18" y1="0" y2="200" stroke="#000000" style="stroke-width: 1px; opacity: 0.05;"></line><text x="16" y="100" transform="matrix(0,1,-1,0,134.7422,56.7578)" style="font-size: 15px; opacity: 0.5;"> 34.12</text><text x="34" y="60" transform="matrix(1,0,0,1,0,0)" style="font-size: 15px; font-family: FontAwesome;">  </text><line x1="33" x2="33" y1="0" y2="200" stroke="#000000" style="stroke-width: 1px; opacity: 0.05;"></line><text x="31" y="100" transform="matrix(0,1,-1,0,149.7422,41.7578)" style="font-size: 15px; opacity: 0.5;"> 34.13</text><text x="49" y="60" transform="matrix(1,0,0,1,0,0)" style="font-size: 15px; font-family: FontAwesome;">  </text><line x1="48" x2="48" y1="0" y2="200" stroke="#000000" style="stroke-width: 1px; opacity: 0.05;"></line><text x="46" y="100" transform="matrix(0,1,-1,0,164.7422,26.7578)" style="font-size: 15px; opacity: 0.5;"> 34.14</text><line x1="63" x2="63" y1="0" y2="200" stroke="#000000" style="stroke-width: 1px; opacity: 0.05;"></line><text x="61" y="100" transform="matrix(0,1,-1,0,179.7422,11.7578)" style="font-size: 15px; opacity: 0.5;"> 34.15</text><text x="79" y="60" transform="matrix(1,0,0,1,0,0)" style="font-size: 15px; font-family: FontAwesome;">  </text><line x1="78" x2="78" y1="0" y2="200" stroke="#000000" style="stroke-width: 1px; opacity: 0.05;"></line><text x="76" y="100" transform="matrix(0,1,-1,0,194.7422,-3.2422)" style="font-size: 15px; opacity: 0.5;"> 34.16</text><text x="94" y="60" transform="matrix(1,0,0,1,0,0)" style="font-size: 15px; font-family: FontAwesome;">  </text><line x1="93" x2="93" y1="0" y2="200" stroke="#000000" style="stroke-width: 1px; opacity: 0.05;"></line><text x="91" y="100" transform="matrix(0,1,-1,0,209.7422,-18.2422)" style="font-size: 15px; opacity: 0.5;"> 34.17</text><text x="109" y="60" transform="matrix(1,0,0,1,0,0)" style="font-size: 15px; font-family: FontAwesome;">  </text><line x1="108" x2="108" y1="0" y2="200" stroke="#000000" style="stroke-width: 1px; opacity: 0.05;"></line><text x="106" y="100" transform="matrix(0,1,-1,0,224.7422,-33.2422)" style="font-size: 15px; opacity: 0.5;"> 34.18</text><text x="124" y="60" transform="matrix(1,0,0,1,0,0)" style="font-size: 15px; font-family: FontAwesome;">  </text><line x1="123" x2="123" y1="0" y2="200" stroke="#000000" style="stroke-width: 1px; opacity: 0.05;"></line><text x="121" y="100" transform="matrix(0,1,-1,0,239.7422,-48.2422)" style="font-size: 15px; opacity: 0.5;"> 34.19</text><line x1="138" x2="138" y1="0" y2="200" stroke="#000000" style="stroke-width: 1px; opacity: 0.05;"></line><text x="136" y="100" transform="matrix(0,1,-1,0,254.7422,-63.2422)" style="font-size: 15px; opacity: 0.5;"> 34.20</text><line x1="153" x2="153" y1="0" y2="200" stroke="#000000" style="stroke-width: 1px; opacity: 0.05;"></line><text x="151" y="100" transform="matrix(0,1,-1,0,269.7422,-78.2422)" style="font-size: 15px; opacity: 0.5;"> 34.21</text><text x="169" y="60" transform="matrix(1,0,0,1,0,0)" style="font-size: 15px; font-family: FontAwesome;">  </text><line x1="168" x2="168" y1="0" y2="200" stroke="#000000" style="stroke-width: 1px; opacity: 0.05;"></line><text x="166" y="100" transform="matrix(0,1,-1,0,284.7422,-93.2422)" style="font-size: 15px; opacity: 0.5;"> 34.22</text><text x="184" y="60" transform="matrix(1,0,0,1,0,0)" style="font-size: 15px; font-family: FontAwesome;">  </text><line x1="183" x2="183" y1="0" y2="200" stroke="#000000" style="stroke-width: 1px; opacity: 0.05;"></line><text x="181" y="100" transform="matrix(0,1,-1,0,299.7422,-108.2422)" style="font-size: 15px; opacity: 0.5;"> 34.23</text><text x="199" y="60" transform="matrix(1,0,0,1,0,0)" style="font-size: 15px; font-family: FontAwesome;">  </text><line x1="198" x2="198" y1="0" y2="200" stroke="#000000" style="stroke-width: 1px; opacity: 0.05;"></line><text x="196" y="100" transform="matrix(0,1,-1,0,314.7422,-123.2422)" style="font-size: 15px; opacity: 0.5;"> 34.24</text><line x1="213" x2="213" y1="0" y2="200" stroke="#000000" style="stroke-width: 1px; opacity: 0.05;"></line><text x="211" y="100" transform="matrix(0,1,-1,0,329.7422,-138.2422)" style="font-size: 15px; opacity: 0.5;"> 34.25</text><text x="229" y="60" transform="matrix(1,0,0,1,0,0)" style="font-size: 15px; font-family: FontAwesome;">  </text><line x1="228" x2="228" y1="0" y2="200" stroke="#000000" style="stroke-width: 1px; opacity: 0.05;"></line><text x="226" y="100" transform="matrix(0,1,-1,0,344.7422,-153.2422)" style="font-size: 15px; opacity: 0.5;"> 34.26</text><text x="244" y="60" transform="matrix(1,0,0,1,0,0)" style="font-size: 15px; font-family: FontAwesome;">  </text><line x1="243" x2="243" y1="0" y2="200" stroke="#000000" style="stroke-width: 1px; opacity: 0.05;"></line><text x="241" y="100" transform="matrix(0,1,-1,0,359.7422,-168.2422)" style="font-size: 15px; opacity: 0.5;"> 34.27</text><text x="259" y="60" transform="matrix(1,0,0,1,0,0)" style="font-size: 15px; font-family: FontAwesome;">  </text><line x1="258" x2="258" y1="0" y2="200" stroke="#000000" style="stroke-width: 1px; opacity: 0.05;"></line><text x="256" y="100" transform="matrix(0,1,-1,0,374.7422,-183.2422)" style="font-size: 15px; opacity: 0.5;"> 34.28</text><line x1="273" x2="273" y1="0" y2="200" stroke="#000000" style="stroke-width: 1px; opacity: 0.05;"></line><text x="271" y="100" transform="matrix(0,1,-1,0,389.7422,-198.2422)" style="font-size: 15px; opacity: 0.5;"> 34.29</text><text x="289" y="60" transform="matrix(1,0,0,1,0,0)" style="font-size: 15px; font-family: FontAwesome;">  </text><line x1="288" x2="288" y1="0" y2="200" stroke="#000000" style="stroke-width: 1px; opacity: 0.05;"></line><text x="286" y="100" transform="matrix(0,1,-1,0,404.7422,-213.2422)" style="font-size: 15px; opacity: 0.5;"> 34.30</text><text x="304" y="60" transform="matrix(1,0,0,1,0,0)" style="font-size: 15px; font-family: FontAwesome;">  </text><line x1="303" x2="303" y1="0" y2="200" stroke="#000000" style="stroke-width: 1px; opacity: 0.05;"></line><text x="301" y="100" transform="matrix(0,1,-1,0,419.7422,-228.2422)" style="font-size: 15px; opacity: 0.5;"> 34.31</text><text x="319" y="60" transform="matrix(1,0,0,1,0,0)" style="font-size: 15px; font-family: FontAwesome;">  </text><line x1="318" x2="318" y1="0" y2="200" stroke="#000000" style="stroke-width: 1px; opacity: 0.05;"></line><text x="316" y="100" transform="matrix(0,1,-1,0,434.7422,-243.2422)" style="font-size: 15px; opacity: 0.5;"> 34.32</text><text x="334" y="60" transform="matrix(1,0,0,1,0,0)" style="font-size: 15px; font-family: FontAwesome;">  </text><line x1="333" x2="333" y1="0" y2="200" stroke="#000000" style="stroke-width: 1px; opacity: 0.05;"></line><text x="331" y="100" transform="matrix(0,1,-1,0,449.7422,-258.2422)" style="font-size: 15px; opacity: 0.5;"> 34.33</text><line x1="348" x2="348" y1="0" y2="200" stroke="#000000" style="stroke-width: 1px; opacity: 0.05;"></line><text x="346" y="100" transform="matrix(0,1,-1,0,464.7422,-273.2422)" style="font-size: 15px; opacity: 0.5;"> 34.34</text><text x="364" y="60" transform="matrix(1,0,0,1,0,0)" style="font-size: 15px; font-family: FontAwesome;">  </text><line x1="363" x2="363" y1="0" y2="200" stroke="#000000" style="stroke-width: 1px; opacity: 0.05;"></line><text x="361" y="100" transform="matrix(0,1,-1,0,479.7422,-288.2422)" style="font-size: 15px; opacity: 0.5;"> 34.35</text><text x="379" y="60" transform="matrix(1,0,0,1,0,0)" style="font-size: 15px; font-family: FontAwesome;">  </text><line x1="378" x2="378" y1="0" y2="200" stroke="#000000" style="stroke-width: 1px; opacity: 0.05;"></line><text x="376" y="100" transform="matrix(0,1,-1,0,494.7422,-303.2422)" style="font-size: 15px; opacity: 0.5;"> 34.36</text><text x="372" y="27" fill="#008000" style="font-size: 15px; font-family: FontAwesome; opacity: 1;" transform="matrix(0,0.8,-0.8,0,417.2828,-298.0922)">Best Bid</text><text x="394" y="60" transform="matrix(1,0,0,1,0,0)" style="font-size: 15px; font-family: FontAwesome;">  </text><line x1="393" x2="393" y1="0" y2="200" stroke="#000000" style="stroke-width: 1px; opacity: 0.05;"></line><text x="391" y="100" transform="matrix(0,1,-1,0,509.7422,-318.2422)" style="font-size: 15px; opacity: 0.5;"> 34.37</text><text x="384" y="160" transform="matrix(0,0.8,-0.8,0,538.675,-177.0859)" style="font-size: 15px; font-family: FontAwesome; opacity: 0.5;">SPREAD</text><text x="384" y="40" transform="matrix(0,0.8,-0.8,0,442.675,-297.0859)" style="font-size: 15px; font-family: FontAwesome; opacity: 0.5;">SPREAD</text><line x1="408" x2="408" y1="0" y2="200" stroke="#000000" style="stroke-width: 1px; opacity: 0.05;"></line><text x="406" y="100" transform="matrix(0,1,-1,0,524.7422,-333.2422)" style="font-size: 15px; opacity: 0.5;"> 34.38</text><text x="395" y="178" fill="#ff0000" style="font-size: 15px; font-family: FontAwesome; opacity: 1;" transform="matrix(0,0.8,-0.8,0,566.9109,-170.1547)">Best Offer</text><text x="424" y="143" transform="matrix(1,0,0,1,0,0)" style="font-size: 15px; font-family: FontAwesome;">  </text><line x1="423" x2="423" y1="0" y2="200" stroke="#000000" style="stroke-width: 1px; opacity: 0.05;"></line><text x="421" y="100" transform="matrix(0,1,-1,0,539.7422,-348.2422)" style="font-size: 15px; opacity: 0.5;"> 34.39</text><line x1="438" x2="438" y1="0" y2="200" stroke="#000000" style="stroke-width: 1px; opacity: 0.05;"></line><text x="436" y="100" transform="matrix(0,1,-1,0,554.7422,-363.2422)" style="font-size: 15px; opacity: 0.5;"> 34.40</text><text x="454" y="143" transform="matrix(1,0,0,1,0,0)" style="font-size: 15px; font-family: FontAwesome;">  </text><line x1="453" x2="453" y1="0" y2="200" stroke="#000000" style="stroke-width: 1px; opacity: 0.05;"></line><text x="451" y="100" transform="matrix(0,1,-1,0,569.7422,-378.2422)" style="font-size: 15px; opacity: 0.5;"> 34.41</text><text x="469" y="143" transform="matrix(1,0,0,1,0,0)" style="font-size: 15px; font-family: FontAwesome;">  </text><line x1="468" x2="468" y1="0" y2="200" stroke="#000000" style="stroke-width: 1px; opacity: 0.05;"></line><text x="466" y="100" transform="matrix(0,1,-1,0,584.7422,-393.2422)" style="font-size: 15px; opacity: 0.5;"> 34.42</text><line x1="483" x2="483" y1="0" y2="200" stroke="#000000" style="stroke-width: 1px; opacity: 0.05;"></line><text x="481" y="100" transform="matrix(0,1,-1,0,599.7422,-408.2422)" style="font-size: 15px; opacity: 0.5;"> 34.43</text><line x1="498" x2="498" y1="0" y2="200" stroke="#000000" style="stroke-width: 1px; opacity: 0.05;"></line><text x="496" y="100" transform="matrix(0,1,-1,0,614.7422,-423.2422)" style="font-size: 15px; opacity: 0.5;"> 34.44</text><text x="514" y="143" transform="matrix(1,0,0,1,0,0)" style="font-size: 15px; font-family: FontAwesome;">  </text><line x1="513" x2="513" y1="0" y2="200" stroke="#000000" style="stroke-width: 1px; opacity: 0.05;"></line><text x="511" y="100" transform="matrix(0,1,-1,0,629.7422,-438.2422)" style="font-size: 15px; opacity: 0.5;"> 34.45</text><text x="529" y="143" transform="matrix(1,0,0,1,0,0)" style="font-size: 15px; font-family: FontAwesome;">  </text><line x1="528" x2="528" y1="0" y2="200" stroke="#000000" style="stroke-width: 1px; opacity: 0.05;"></line><text x="526" y="100" transform="matrix(0,1,-1,0,644.7422,-453.2422)" style="font-size: 15px; opacity: 0.5;"> 34.46</text><text x="544" y="143" transform="matrix(1,0,0,1,0,0)" style="font-size: 15px; font-family: FontAwesome;">  </text><line x1="543" x2="543" y1="0" y2="200" stroke="#000000" style="stroke-width: 1px; opacity: 0.05;"></line><text x="541" y="100" transform="matrix(0,1,-1,0,659.7422,-468.2422)" style="font-size: 15px; opacity: 0.5;"> 34.47</text><line x1="558" x2="558" y1="0" y2="200" stroke="#000000" style="stroke-width: 1px; opacity: 0.05;"></line><text x="556" y="100" transform="matrix(0,1,-1,0,674.7422,-483.2422)" style="font-size: 15px; opacity: 0.5;"> 34.48</text><text x="574" y="143" transform="matrix(1,0,0,1,0,0)" style="font-size: 15px; font-family: FontAwesome;">  </text><line x1="573" x2="573" y1="0" y2="200" stroke="#000000" style="stroke-width: 1px; opacity: 0.05;"></line><text x="571" y="100" transform="matrix(0,1,-1,0,689.7422,-498.2422)" style="font-size: 15px; opacity: 0.5;"> 34.49</text><line x1="588" x2="588" y1="0" y2="200" stroke="#000000" style="stroke-width: 1px; opacity: 0.05;"></line><text x="586" y="100" transform="matrix(0,1,-1,0,704.7422,-513.2422)" style="font-size: 15px; opacity: 0.5;"> 34.50</text><text x="604" y="143" transform="matrix(1,0,0,1,0,0)" style="font-size: 15px; font-family: FontAwesome;">  </text><line x1="603" x2="603" y1="0" y2="200" stroke="#000000" style="stroke-width: 1px; opacity: 0.05;"></line><text x="601" y="100" transform="matrix(0,1,-1,0,719.7422,-528.2422)" style="font-size: 15px; opacity: 0.5;"> 34.51</text><line x1="618" x2="618" y1="0" y2="200" stroke="#000000" style="stroke-width: 1px; opacity: 0.05;"></line><text x="616" y="100" transform="matrix(0,1,-1,0,734.7422,-543.2422)" style="font-size: 15px; opacity: 0.5;"> 34.52</text><line x1="633" x2="633" y1="0" y2="200" stroke="#000000" style="stroke-width: 1px; opacity: 0.05;"></line><text x="631" y="100" transform="matrix(0,1,-1,0,749.7422,-558.2422)" style="font-size: 15px; opacity: 0.5;"> 34.53</text><text x="649" y="143" transform="matrix(1,0,0,1,0,0)" style="font-size: 15px; font-family: FontAwesome;">  </text><line x1="648" x2="648" y1="0" y2="200" stroke="#000000" style="stroke-width: 1px; opacity: 0.05;"></line><text x="646" y="100" transform="matrix(0,1,-1,0,764.7422,-573.2422)" style="font-size: 15px; opacity: 0.5;"> 34.54</text><line x1="663" x2="663" y1="0" y2="200" stroke="#000000" style="stroke-width: 1px; opacity: 0.05;"></line><text x="661" y="100" transform="matrix(0,1,-1,0,779.7422,-588.2422)" style="font-size: 15px; opacity: 0.5;"> 34.55</text><line x1="678" x2="678" y1="0" y2="200" stroke="#000000" style="stroke-width: 1px; opacity: 0.05;"></line><text x="676" y="100" transform="matrix(0,1,-1,0,794.7422,-603.2422)" style="font-size: 15px; opacity: 0.5;"> 34.56</text><text x="694" y="143" transform="matrix(1,0,0,1,0,0)" style="font-size: 15px; font-family: FontAwesome;">  </text><line x1="693" x2="693" y1="0" y2="200" stroke="#000000" style="stroke-width: 1px; opacity: 0.05;"></line><text x="691" y="100" transform="matrix(0,1,-1,0,809.7422,-618.2422)" style="font-size: 15px; opacity: 0.5;"> 34.57</text><text x="709" y="143" transform="matrix(1,0,0,1,0,0)" style="font-size: 15px; font-family: FontAwesome;">  </text><line x1="708" x2="708" y1="0" y2="200" stroke="#000000" style="stroke-width: 1px; opacity: 0.05;"></line><text x="706" y="100" transform="matrix(0,1,-1,0,824.7422,-633.2422)" style="font-size: 15px; opacity: 0.5;"> 34.58</text><text x="724" y="143" transform="matrix(1,0,0,1,0,0)" style="font-size: 15px; font-family: FontAwesome;">  </text><line x1="723" x2="723" y1="0" y2="200" stroke="#000000" style="stroke-width: 1px; opacity: 0.05;"></line><text x="721" y="100" transform="matrix(0,1,-1,0,839.7422,-648.2422)" style="font-size: 15px; opacity: 0.5;"> 34.59</text><text x="739" y="143" transform="matrix(1,0,0,1,0,0)" style="font-size: 15px; font-family: FontAwesome;">  </text><line x1="738" x2="738" y1="0" y2="200" stroke="#000000" style="stroke-width: 1px; opacity: 0.05;"></line><text x="736" y="100" transform="matrix(0,1,-1,0,854.7422,-663.2422)" style="font-size: 15px; opacity: 0.5;"> 34.60</text><text x="754" y="143" transform="matrix(1,0,0,1,0,0)" style="font-size: 15px; font-family: FontAwesome;">  </text><line x1="753" x2="753" y1="0" y2="200" stroke="#000000" style="stroke-width: 1px; opacity: 0.05;"></line><text x="751" y="100" transform="matrix(0,1,-1,0,869.7422,-678.2422)" style="font-size: 15px; opacity: 0.5;"> 34.61</text><text x="769" y="143" transform="matrix(1,0,0,1,0,0)" style="font-size: 15px; font-family: FontAwesome;">  </text><line x1="768" x2="768" y1="0" y2="200" stroke="#000000" style="stroke-width: 1px; opacity: 0.05;"></line><text x="766" y="100" transform="matrix(0,1,-1,0,884.7422,-693.2422)" style="font-size: 15px; opacity: 0.5;"> 34.62</text><text x="784" y="143" transform="matrix(1,0,0,1,0,0)" style="font-size: 15px; font-family: FontAwesome;">  </text><line x1="783" x2="783" y1="0" y2="200" stroke="#000000" style="stroke-width: 1px; opacity: 0.05;"></line><text x="781" y="100" transform="matrix(0,1,-1,0,899.7422,-708.2422)" style="font-size: 15px; opacity: 0.5;"> 34.63</text><text x="799" y="143" transform="matrix(1,0,0,1,0,0)" style="font-size: 15px; font-family: FontAwesome;">  </text><line x1="798" x2="798" y1="0" y2="200" stroke="#000000" style="stroke-width: 1px; opacity: 0.05;"></line><text x="796" y="100" transform="matrix(0,1,-1,0,914.7422,-723.2422)" style="font-size: 15px; opacity: 0.5;"> 34.64</text><text x="814" y="143" transform="matrix(1,0,0,1,0,0)" style="font-size: 15px; font-family: FontAwesome;">  </text><line x1="813" x2="813" y1="0" y2="200" stroke="#000000" style="stroke-width: 1px; opacity: 0.05;"></line><text x="811" y="100" transform="matrix(0,1,-1,0,929.7422,-738.2422)" style="font-size: 15px; opacity: 0.5;"> 34.65</text><line x1="828" x2="828" y1="0" y2="200" stroke="#000000" style="stroke-width: 1px; opacity: 0.05;"></line><text x="826" y="100" transform="matrix(0,1,-1,0,944.7422,-753.2422)" style="font-size: 15px; opacity: 0.5;"> 34.66</text><line x1="843" x2="843" y1="0" y2="200" stroke="#000000" style="stroke-width: 1px; opacity: 0.05;"></line><text x="841" y="100" transform="matrix(0,1,-1,0,959.7422,-768.2422)" style="font-size: 15px; opacity: 0.5;"> 34.67</text><text x="859" y="143" transform="matrix(1,0,0,1,0,0)" style="font-size: 15px; font-family: FontAwesome;">  </text><line x1="858" x2="858" y1="0" y2="200" stroke="#000000" style="stroke-width: 1px; opacity: 0.05;"></line><text x="856" y="100" transform="matrix(0,1,-1,0,974.7422,-783.2422)" style="font-size: 15px; opacity: 0.5;"> 34.68</text><line x1="873" x2="873" y1="0" y2="200" stroke="#000000" style="stroke-width: 1px; opacity: 0.05;"></line><text x="871" y="100" transform="matrix(0,1,-1,0,989.7422,-798.2422)" style="font-size: 15px; opacity: 0.5;"> 34.69</text><text x="889" y="143" transform="matrix(1,0,0,1,0,0)" style="font-size: 15px; font-family: FontAwesome;">  </text><line x1="888" x2="888" y1="0" y2="200" stroke="#000000" style="stroke-width: 1px; opacity: 0.05;"></line><text x="886" y="100" transform="matrix(0,1,-1,0,1004.7422,-813.2422)" style="font-size: 15px; opacity: 0.5;"> 34.70</text><text x="904" y="143" transform="matrix(1,0,0,1,0,0)" style="font-size: 15px; font-family: FontAwesome;">  </text><line x1="903" x2="903" y1="0" y2="200" stroke="#000000" style="stroke-width: 1px; opacity: 0.05;"></line><text x="901" y="100" transform="matrix(0,1,-1,0,1019.7422,-828.2422)" style="font-size: 15px; opacity: 0.5;"> 34.71</text><text x="919" y="143" transform="matrix(1,0,0,1,0,0)" style="font-size: 15px; font-family: FontAwesome;">  </text><line x1="918" x2="918" y1="0" y2="200" stroke="#000000" style="stroke-width: 1px; opacity: 0.05;"></line><text x="916" y="100" transform="matrix(0,1,-1,0,1034.7422,-843.2422)" style="font-size: 15px; opacity: 0.5;"> 34.72</text><text x="934" y="143" transform="matrix(1,0,0,1,0,0)" style="font-size: 15px; font-family: FontAwesome;">  </text><line x1="933" x2="933" y1="0" y2="200" stroke="#000000" style="stroke-width: 1px; opacity: 0.05;"></line><text x="931" y="100" transform="matrix(0,1,-1,0,1049.7422,-858.2422)" style="font-size: 15px; opacity: 0.5;"> 34.73</text><text x="949" y="143" transform="matrix(1,0,0,1,0,0)" style="font-size: 15px; font-family: FontAwesome;">  </text><line x1="948" x2="948" y1="0" y2="200" stroke="#000000" style="stroke-width: 1px; opacity: 0.05;"></line><text x="946" y="100" transform="matrix(0,1,-1,0,1064.7422,-873.2422)" style="font-size: 15px; opacity: 0.5;"> 34.74</text><text x="964" y="143" transform="matrix(1,0,0,1,0,0)" style="font-size: 15px; font-family: FontAwesome;">  </text><line x1="963" x2="963" y1="0" y2="200" stroke="#000000" style="stroke-width: 1px; opacity: 0.05;"></line><text x="961" y="100" transform="matrix(0,1,-1,0,1079.7422,-888.2422)" style="font-size: 15px; opacity: 0.5;"> 34.75</text><text x="979" y="143" transform="matrix(1,0,0,1,0,0)" style="font-size: 15px; font-family: FontAwesome;">  </text><line x1="978" x2="978" y1="0" y2="200" stroke="#000000" style="stroke-width: 1px; opacity: 0.05;"></line><text x="976" y="100" transform="matrix(0,1,-1,0,1094.7422,-903.2422)" style="font-size: 15px; opacity: 0.5;"> 34.76</text><text x="994" y="143" transform="matrix(1,0,0,1,0,0)" style="font-size: 15px; font-family: FontAwesome;">  </text><line x1="993" x2="993" y1="0" y2="200" stroke="#000000" style="stroke-width: 1px; opacity: 0.05;"></line><text x="991" y="100" transform="matrix(0,1,-1,0,1109.7422,-918.2422)" style="font-size: 15px; opacity: 0.5;"> 34.77</text><text x="1009" y="143" transform="matrix(1,0,0,1,0,0)" style="font-size: 15px; font-family: FontAwesome;">  </text><line x1="1008" x2="1008" y1="0" y2="200" stroke="#000000" style="stroke-width: 1px; opacity: 0.05;"></line><text x="1006" y="100" transform="matrix(0,1,-1,0,1124.7422,-933.2422)" style="font-size: 15px; opacity: 0.5;"> 34.78</text><line x1="1023" x2="1023" y1="0" y2="200" stroke="#000000" style="stroke-width: 1px; opacity: 0.05;"></line><text x="1021" y="100" transform="matrix(0,1,-1,0,1139.7422,-948.2422)" style="font-size: 15px; opacity: 0.5;"> 34.79</text><text x="1039" y="143" transform="matrix(1,0,0,1,0,0)" style="font-size: 15px; font-family: FontAwesome;">  </text><line x1="1038" x2="1038" y1="0" y2="200" stroke="#000000" style="stroke-width: 1px; opacity: 0.05;"></line><text x="1036" y="100" transform="matrix(0,1,-1,0,1154.7422,-963.2422)" style="font-size: 15px; opacity: 0.5;"> 34.80</text><line x1="1053" x2="1053" y1="0" y2="200" stroke="#000000" style="stroke-width: 1px; opacity: 0.05;"></line><text x="1051" y="100" transform="matrix(0,1,-1,0,1169.7422,-978.2422)" style="font-size: 15px; opacity: 0.5;"> 34.81</text><text x="1069" y="143" transform="matrix(1,0,0,1,0,0)" style="font-size: 15px; font-family: FontAwesome;">  </text><line x1="1068" x2="1068" y1="0" y2="200" stroke="#000000" style="stroke-width: 1px; opacity: 0.05;"></line><text x="1066" y="100" transform="matrix(0,1,-1,0,1184.7422,-993.2422)" style="font-size: 15px; opacity: 0.5;"> 34.82</text><text x="1084" y="143" transform="matrix(1,0,0,1,0,0)" style="font-size: 15px; font-family: FontAwesome;">  </text><line x1="1083" x2="1083" y1="0" y2="200" stroke="#000000" style="stroke-width: 1px; opacity: 0.05;"></line><text x="1081" y="100" transform="matrix(0,1,-1,0,1199.7422,-1008.2422)" style="font-size: 15px; opacity: 0.5;"> 34.83</text><text x="1099" y="143" transform="matrix(1,0,0,1,0,0)" style="font-size: 15px; font-family: FontAwesome;">  </text><line x1="1098" x2="1098" y1="0" y2="200" stroke="#000000" style="stroke-width: 1px; opacity: 0.05;"></line><text x="1096" y="100" transform="matrix(0,1,-1,0,1214.7422,-1023.2422)" style="font-size: 15px; opacity: 0.5;"> 34.84</text><text x="1114" y="143" transform="matrix(1,0,0,1,0,0)" style="font-size: 15px; font-family: FontAwesome;">  </text><line x1="1113" x2="1113" y1="0" y2="200" stroke="#000000" style="stroke-width: 1px; opacity: 0.05;"></line><text x="1111" y="100" transform="matrix(0,1,-1,0,1229.7422,-1038.2422)" style="font-size: 15px; opacity: 0.5;"> 34.85</text><text x="1129" y="143" transform="matrix(1,0,0,1,0,0)" style="font-size: 15px; font-family: FontAwesome;">  </text><line x1="1128" x2="1128" y1="0" y2="200" stroke="#000000" style="stroke-width: 1px; opacity: 0.05;"></line><text x="1126" y="100" transform="matrix(0,1,-1,0,1244.7422,-1053.2422)" style="font-size: 15px; opacity: 0.5;"> 34.86</text><text x="1144" y="143" transform="matrix(1,0,0,1,0,0)" style="font-size: 15px; font-family: FontAwesome;">  </text><line x1="1143" x2="1143" y1="0" y2="200" stroke="#000000" style="stroke-width: 1px; opacity: 0.05;"></line><text x="1141" y="100" transform="matrix(0,1,-1,0,1259.7422,-1068.2422)" style="font-size: 15px; opacity: 0.5;"> 34.87</text><text x="1159" y="143" transform="matrix(1,0,0,1,0,0)" style="font-size: 15px; font-family: FontAwesome;">  </text><line x1="1158" x2="1158" y1="0" y2="200" stroke="#000000" style="stroke-width: 1px; opacity: 0.05;"></line><text x="1156" y="100" transform="matrix(0,1,-1,0,1274.7422,-1083.2422)" style="font-size: 15px; opacity: 0.5;"> 34.88</text><text x="1174" y="143" transform="matrix(1,0,0,1,0,0)" style="font-size: 15px; font-family: FontAwesome;">  </text><line x1="1173" x2="1173" y1="0" y2="200" stroke="#000000" style="stroke-width: 1px; opacity: 0.05;"></line><text x="1171" y="100" transform="matrix(0,1,-1,0,1289.7422,-1098.2422)" style="font-size: 15px; opacity: 0.5;"> 34.89</text><text x="1189" y="143" transform="matrix(1,0,0,1,0,0)" style="font-size: 15px; font-family: FontAwesome;">  </text><line x1="1188" x2="1188" y1="0" y2="200" stroke="#000000" style="stroke-width: 1px; opacity: 0.05;"></line></svg>
