<?xml version="1.0" encoding="utf-8"?>
<!-- Generator: Adobe Illustrator 17.1.0, SVG Export Plug-In . SVG Version: 6.00 Build 0)  -->
<!DOCTYPE svg PUBLIC "-//W3C//DTD SVG 1.1//EN" "http://www.w3.org/Graphics/SVG/1.1/DTD/svg11.dtd">
<svg version="1.1" id="Layer_1" xmlns="http://www.w3.org/2000/svg" xmlns:xlink="http://www.w3.org/1999/xlink" x="0px" y="0px"
  width="400px" height="400px" viewBox="0 0 400 400" enable-background="new 0 0 800 800" xml:space="preserve">
    <line x1="60" y1="215" x2="360" y2="365" stroke-width="1" stroke="black"></line><line x1="60" y1="215" x2="360" y2="65" stroke-width="1" stroke="black"></line><line x1="160" y1="165" x2="360" y2="265" stroke-width="1" stroke="black"></line><line x1="160" y1="265" x2="360" y2="165" stroke-width="1" stroke="black"></line><line x1="260" y1="115" x2="360" y2="165" stroke-width="1" stroke="black"></line><line x1="260" y1="315" x2="360" y2="265" stroke-width="1" stroke="black"></line><line x1="360" y1="65" x2="360" y2="65" stroke-width="1" stroke="black"></line><line x1="360" y1="365" x2="360" y2="365" stroke-width="1" stroke="black"></line><line x1="130" y1="180" x2="121" y2="183" stroke-width="2" stroke="black"></line><line x1="130" y1="180" x2="122" y2="186" stroke-width="1" stroke="black"></line><line x1="130" y1="250" x2="121" y2="247" stroke-width="2" stroke="black"></line><line x1="130" y1="250" x2="122" y2="244" stroke-width="1" stroke="black"></line><line x1="230" y1="130" x2="221" y2="133" stroke-width="2" stroke="black"></line><line x1="230" y1="130" x2="222" y2="136" stroke-width="1" stroke="black"></line><line x1="230" y1="200" x2="221" y2="197" stroke-width="2" stroke="black"></line><line x1="230" y1="200" x2="222" y2="194" stroke-width="1" stroke="black"></line><line x1="230" y1="230" x2="221" y2="233" stroke-width="2" stroke="black"></line><line x1="230" y1="230" x2="222" y2="236" stroke-width="1" stroke="black"></line><line x1="230" y1="300" x2="221" y2="297" stroke-width="2" stroke="black"></line><line x1="230" y1="300" x2="222" y2="294" stroke-width="1" stroke="black"></line><line x1="330" y1="80" x2="321" y2="83" stroke-width="2" stroke="black"></line><line x1="330" y1="80" x2="322" y2="86" stroke-width="1" stroke="black"></line><line x1="330" y1="150" x2="321" y2="147" stroke-width="2" stroke="black"></line><line x1="330" y1="150" x2="322" y2="144" stroke-width="1" stroke="black"></line><line x1="330" y1="180" x2="321" y2="183" stroke-width="2" stroke="black"></line><line x1="330" y1="180" x2="322" y2="186" stroke-width="1" stroke="black"></line><line x1="330" y1="250" x2="321" y2="247" stroke-width="2" stroke="black"></line><line x1="330" y1="250" x2="322" y2="244" stroke-width="1" stroke="black"></line><line x1="330" y1="280" x2="321" y2="283" stroke-width="2" stroke="black"></line><line x1="330" y1="280" x2="322" y2="286" stroke-width="1" stroke="black"></line><line x1="330" y1="350" x2="321" y2="347" stroke-width="2" stroke="black"></line><line x1="330" y1="350" x2="322" y2="344" stroke-width="1" stroke="black"></line><rect x="30" y="200" width="60" height="30" ry="5" style="stroke: rgb(120, 120, 120); fill: rgb(245, 245, 220);"></rect><text x="30" y="200" dx="30" dy="20" style="text-anchor: middle; font-size: 15px;"><tspan>S</tspan><tspan dy="3" style="font-size: 10px;">0</tspan></text><rect x="130" y="150" width="60" height="30" ry="5" style="stroke: rgb(120, 120, 120); fill: rgb(245, 245, 220);"></rect><text x="130" y="150" dx="30" dy="20" style="text-anchor: middle; font-size: 15px;"><tspan>u*S</tspan><tspan dy="3" style="font-size: 10px;">0</tspan></text><rect x="130" y="250" width="60" height="30" ry="5" style="stroke: rgb(120, 120, 120); fill: rgb(245, 245, 220);"></rect><text x="130" y="250" dx="30" dy="20" style="text-anchor: middle; font-size: 15px;"><tspan>d*S</tspan><tspan dy="3" style="font-size: 10px;">0</tspan></text><rect x="230" y="100" width="60" height="30" ry="5" style="stroke: rgb(120, 120, 120); fill: rgb(245, 245, 220);"></rect><text x="230" y="100" dx="30" dy="20" style="text-anchor: middle; font-size: 15px;"><tspan>u</tspan><tspan dy="-5" style="font-size: 10px;">2</tspan><tspan dy="5">*S</tspan><tspan dy="3" style="font-size: 10px;">0</tspan></text><rect x="230" y="200" width="60" height="30" ry="5" style="stroke: rgb(120, 120, 120); fill: rgb(245, 245, 220);"></rect><text x="230" y="200" dx="30" dy="20" style="text-anchor: middle; font-size: 15px;"><tspan>ud*S</tspan></text><rect x="230" y="300" width="60" height="30" ry="5" style="stroke: rgb(120, 120, 120); fill: rgb(245, 245, 220);"></rect><text x="230" y="300" dx="30" dy="20" style="text-anchor: middle; font-size: 15px;"><tspan>d</tspan><tspan dy="-5" style="font-size: 10px;">2</tspan><tspan dy="5">*S</tspan><tspan dy="3" style="font-size: 10px;">0</tspan></text><rect x="330" y="50" width="60" height="30" ry="5" style="stroke: rgb(120, 120, 120); fill: rgb(245, 245, 220);"></rect><text x="330" y="50" dx="30" dy="20" style="text-anchor: middle; font-size: 15px;"><tspan>u</tspan><tspan dy="-5" style="font-size: 10px;">3</tspan><tspan dy="5">*S</tspan><tspan dy="3" style="font-size: 10px;">0</tspan></text><rect x="330" y="150" width="60" height="30" ry="5" style="stroke: rgb(120, 120, 120); fill: rgb(245, 245, 220);"></rect><text x="330" y="150" dx="30" dy="20" style="text-anchor: middle; font-size: 15px;"><tspan>ud</tspan><tspan dy="-5" style="font-size: 10px;">2</tspan><tspan dy="5">*S</tspan></text><rect x="330" y="250" width="60" height="30" ry="5" style="stroke: rgb(120, 120, 120); fill: rgb(245, 245, 220);"></rect><text x="330" y="250" dx="30" dy="20" style="text-anchor: middle; font-size: 15px;"><tspan>u</tspan><tspan dy="-5" style="font-size: 10px;">2</tspan><tspan dy="5">d*S</tspan></text><rect x="330" y="350" width="60" height="30" ry="5" style="stroke: rgb(120, 120, 120); fill: rgb(245, 245, 220);"></rect><text x="330" y="350" dx="30" dy="20" style="text-anchor: middle; font-size: 15px;"><tspan>d</tspan><tspan dy="-5" style="font-size: 10px;">3</tspan><tspan dy="5">*S</tspan><tspan dy="3" style="font-size: 10px;">0</tspan></text></svg>
