<?xml version="1.0" encoding="iso-8859-1"?>
<!-- Generator: Adobe Illustrator 17.0.0, SVG Export Plug-In . SVG Version: 6.00 Build 0)  -->
<!DOCTYPE svg PUBLIC "-//W3C//DTD SVG 1.1//EN" "http://www.w3.org/Graphics/SVG/1.1/DTD/svg11.dtd">
<svg version="1.1" id="Capa_1" xmlns="http://www.w3.org/2000/svg" xmlns:xlink="http://www.w3.org/1999/xlink" x="0px" y="0px"
	 width="64px" height="64px" viewBox="0 0 64 64" style="enable-background:new 0 0 64 64;" xml:space="preserve">
<polygon points="11.852,18.047 8.949,57.19 5.297,57.19 8.013,24.133 "/>
<polygon points="53.336,24.416 55.49,57.19 57.925,57.19 55.63,28.724 "/>
<path d="M22.994,14.302L15.878,57.19h15.264V6.81L22.994,14.302z M29.644,49.136l-11.494,4.307l0.655-4.495l10.839-4.4V49.136z
	 M29.644,42.395l-10.675,4.4l0.655-4.495l10.02-4.494V42.395z M29.644,35.654l-9.692,4.212l0.656-4.495l9.036-4.306V35.654z
	 M29.644,29.004l-8.521,4.401l0.655-4.495l7.865-4.495V29.004z M29.644,22.167l-7.538,4.497l0.655-4.495l6.883-4.59V22.167z
	 M29.644,15.519l-6.555,4.4l0.936-4.4l5.619-4.589V15.519z"/>
<path d="M38.54,12.428L31.984,6.81v50.38h14.795L38.54,12.428z M32.922,10.93l4.869,3.465l0.89,4.027l-5.759-3.372V10.93z
	 M32.922,17.579l5.759,2.786l0.702,3.863l-6.461-2.528V17.579z M32.922,24.227l6.461,2.437l0.887,4.212l-7.348-2.529V24.227z
	 M32.922,30.875l7.348,2.53l0.941,4.938l-8.288-2.878V30.875z M32.922,37.524l8.521,3.045l0.921,4.601l-9.441-3.174V37.524z
	 M32.922,44.173l9.441,3.419l1.06,4.292l-10.501-3.146V44.173z"/>
<path d="M12.601,18.422L9.604,57.19h5.618l0.776-4.777l-5.184-1.358l0.187-2.201l5.312,1.626l0.247-1.521l-5.459-1.587l0.187-2.201
	l5.585,1.875l0.249-1.542l-5.774-1.692l0.187-2.201l5.896,2.001l0.254-1.562l-6.02-1.854l0.187-2.202l6.139,2.184l0.258-1.583
	l-6.396-2.027l0.188-2.202l6.365,2.319v0.942l1.219-7.498v-8.709L12.601,18.422z M18.545,35.043l-6.272-2.248l0.187-2.202
	l6.085,2.483V35.043z M18.687,31.438l-6.099-2.189l0.188-2.201l5.911,2.424V31.438z M18.828,27.833l-5.899-2.106l0.187-2.201
	l5.713,2.341V27.833z M18.969,24.227l-5.9-2.106l0.187-2.202l5.713,2.342V24.227z"/>
<path d="M52.867,23.946l-7.023,2.809l-1.217,15.171l0.653,3.225l7.823-1.932l0.139,2.551l-7.511,1.609l0.318,1.572l7.286-1.451
	l0.227,2.75l-7.05,0.988l1.205,5.952h6.93L52.867,23.946z M46.469,28.281l5.757-2.115l0.101,2.415l-6.014,1.815L46.469,28.281z
	 M46.156,31.656l6.364-1.969l0.125,2.167L46,33.771L46.156,31.656z M45.844,35.031l6.802-2.115l0.104,2.291l-7.062,1.938
	L45.844,35.031z M45.531,38.406l7.322-2.115l0.084,2.332l-7.562,1.898L45.531,38.406z M45.062,43.896l0.156-2.114l7.719-2.115
	l0.166,2.227L45.062,43.896z"/>
</svg>
