<?xml version="1.0" encoding="iso-8859-1"?>
<!-- Generator: Adobe Illustrator 16.0.0, SVG Export Plug-In . SVG Version: 6.00 Build 0)  -->
<!DOCTYPE svg PUBLIC "-//W3C//DTD SVG 1.1//EN" "http://www.w3.org/Graphics/SVG/1.1/DTD/svg11.dtd">
<svg version="1.1" id="Layer_1" xmlns="http://www.w3.org/2000/svg" xmlns:xlink="http://www.w3.org/1999/xlink" x="0px" y="0px"
	 width="500px" height="500px" viewBox="0 0 500 500" style="enable-background:new 0 0 500 500;" xml:space="preserve">
<g>
	<path d="M248.363,179.955c46.313,0,83.989-37.718,83.989-84.039c0-46.344-37.676-84.055-83.989-84.055
		c-46.367,0-84.071,37.709-84.071,84.055C164.29,142.254,201.996,179.955,248.363,179.955z M248.378,25.271
		c38.95,0,70.604,31.702,70.604,70.645c0,38.951-31.653,70.62-70.604,70.62c-39.005,0-70.673-31.67-70.673-70.62
		C177.697,56.974,209.374,25.271,248.378,25.271z"/>
	<path d="M229.793,118.208l-2.975-1.918l-4.873,13.598l1.722,1.217c4.371,3.126,10.926,5.256,17.636,5.829v12.489h13.379v-13.353
		c11.769-2.75,19.54-11.875,19.54-23.312c-0.018-11.64-6.253-19.141-20.879-25.091c-11.068-4.711-12.873-7.24-12.873-11.534
		c0-3.656,1.64-7.976,9.574-7.976c7.265,0,11.934,2.645,14.187,3.952l2.834,1.625l5.093-13.468l-2.089-1.185
		c-4.472-2.522-9.28-4-14.637-4.497V42.411h-13.403v12.855c-11.357,2.774-18.544,11.28-18.544,22.218
		c-0.022,13.55,11.182,19.786,22.137,24.104c9.508,3.853,11.461,7.623,11.461,12.129c0,2.564-0.827,4.743-2.435,6.368
		C249.814,124.933,237.535,123.316,229.793,118.208z"/>
	<path d="M292.854,204.042c0,35.685,29.08,64.678,64.759,64.678c35.694,0,64.71-29,64.71-64.678
		c0-35.653-29.034-64.687-64.71-64.687C321.936,139.355,292.854,168.389,292.854,204.042z M357.614,150.84
		c29.346,0,53.172,23.858,53.172,53.202c0,29.343-23.845,53.194-53.172,53.194c-29.359,0-53.209-23.852-53.209-53.194
		C304.405,174.699,328.255,150.84,357.614,150.84z"/>
	<path d="M343.797,220.497l-2.955-1.95l-4.228,11.641l1.715,1.215c3.273,2.334,8.171,4,13.189,4.529v9.599h11.494l0.064-10.308
		c8.978-2.303,14.872-9.419,14.872-18.308c0.015-11.656-8.734-16.675-16.31-19.729c-8.063-3.453-9.368-5.232-9.368-8.211
		c0-3.607,2.228-5.42,6.603-5.42c5.362,0,8.7,1.9,10.514,2.955l2.816,1.59l4.31-11.475l-2.056-1.192
		c-3.289-1.877-6.825-3.036-10.793-3.468v-9.363h-11.557v9.982c-8.531,2.285-14.104,9.054-14.104,17.427
		c0,10.718,8.74,15.639,17.271,19.025c6.938,2.774,8.309,5.387,8.286,8.637c0,1.729-0.547,3.24-1.592,4.326
		C358.487,225.418,349.499,224.252,343.797,220.497z"/>
	<path d="M478.131,295.715c-9.939-9.196-22.866-14.26-36.389-14.26c-14.876,0-29.21,6.251-39.311,17.158
		c-27.98,30.209-53.617,52.027-76.022,64.848c4.838-7.998,7.638-17.346,7.684-27.327c0.126-29.534-23.79-54.067-53.323-54.204
		l-140.097-0.229c-11.875,0-23.389,3.881-32.651,10.916l-5.356,4.068V277.42H4.734v210.719h97.931v-25.862l37.464,17.031
		c7.015,3.18,14.468,4.796,22.157,4.796h122.313c82.503,0,151.619-64.311,196.428-112.687
		C501.089,349.745,499.796,315.785,478.131,295.715z M469.241,360.49c-42.757,46.163-108.428,107.539-184.632,107.539H162.297
		c-5.388,0-10.608-1.131-15.515-3.358l-39.274-17.854c-0.95-0.428-3.628-0.963-4.843-1.474v-128.48l15.07-11.456
		c6.486-4.927,14.541-7.642,22.687-7.642l140.27,0.229c20.678,0.089,37.428,17.389,37.333,38.062
		c-0.101,20.584-16.917,36.88-37.496,36.88l-117.362-0.079h-0.032c-16.717,0-18.384,20.181-5.759,20.181h127.234
		c34.675,0,78.297-28.096,129.612-83.508c7.072-7.637,17.105-12.011,27.526-12.011c9.468,0,18.508,3.547,25.465,9.981
		C482.383,321.551,483.292,345.32,469.241,360.49z"/>
</g>
</svg>
